<svg width="800" height="142" viewBox="0 0 800 142" xmlns="http://www.w3.org/2000/svg" xmlns:xlink="http://www.w3.org/1999/xlink" xml:space="preserve" overflow="hidden"><g id="Background"></g><g id="Vertical"></g><g id="Horizontal"></g><g id="Dynatrace_Color"></g><g id="Variants"><g><g><g><path d="M578.6 37.2 560.2 37.2C555 37.2 551.4 38.2 549.2 40.4 547 42.5 545.9 46.2 545.9 51.2L545.9 114.8 534.9 114.8 534.9 50.4C535 45.5 535.8 40.2 538.4 36.2 543.1 28.7 552.1 27.3 558.8 27.3L578.7 27.3 578.7 37.2Z" fill="#FFFFFF"/></g><g><path d="M507.6 104.8C502.4 104.8 498.8 103.8 496.6 101.6 494.4 99.5 493.3 96 493.3 91L493.3 37.2 516.4 37.2 516.4 27.3 493.3 27.3 493.3 1 482.3 1 482.3 91.6C482.4 96.5 483.2 101.8 485.8 105.8 490.5 113.3 499.5 114.7 506.2 114.7L526.1 114.7 526.1 104.8 507.6 104.8Z" fill="#FFFFFF"/></g><path d="M219.3 1 219.3 27.2 196.2 27.2C182.2 27.2 173.7 31.4 168.4 36.5 160.3 44.4 160.3 55.7 160.3 56.9 160.3 58.3 160.3 83.7 160.3 85.1 160.3 86.3 160.3 97.6 168.4 105.5 173.6 110.6 182.1 114.8 196.2 114.8L206.5 114.8C213.2 114.8 222.2 113.3 226.9 105.9 229.4 101.9 230.3 96.6 230.4 91.7L230.4 1 219.3 1ZM216 101.7C213.8 103.8 210.2 104.9 205 104.9L195 104.9C185.9 104.9 180.2 102.3 176.8 98.9 172.7 94.9 171.3 89.6 171.3 85.5L171.3 56.6C171.3 52.5 172.7 47.2 176.8 43.2 180.3 39.8 185.9 37.2 195 37.2L219.2 37.2 219.2 91.1C219.3 96 218.2 99.5 216 101.7Z" fill="#FFFFFF"/><path d="M678.2 43.2C681.7 39.8 687.3 37.2 696.4 37.2L722.9 37.2 722.9 27.3 697.5 27.3C683.5 27.3 675 31.5 669.7 36.6 661.6 44.5 661.6 55.8 661.6 57 661.6 57.8 661.6 84.4 661.6 85.2 661.6 86.4 661.6 97.7 669.7 105.6 674.9 110.7 683.4 114.9 697.5 114.9L722.9 114.9 722.9 105 696.4 105C687.3 105 681.6 102.4 678.2 99 674.1 95 672.7 89.7 672.7 85.6L672.7 56.6C672.7 52.5 674.1 47.1 678.2 43.2Z" fill="#FFFFFF"/><path d="M470.9 56.9C470.9 55.7 470.9 44.4 462.8 36.5 457.6 31.4 449.1 27.2 435 27.2L410.5 27.2 410.5 37.1 436.1 37.1C445.2 37.1 450.9 39.7 454.3 43.1 458.4 47.1 459.8 52.4 459.8 56.5L459.8 65 424.7 65C418 65 409 66.5 404.3 73.9 401.8 77.9 400.9 83.2 400.8 88.1L400.8 91.6C400.9 96.5 401.7 101.8 404.3 105.8 409 113.3 418 114.7 424.7 114.7L447 114.7C453.7 114.7 462.7 113.2 467.4 105.8 469.9 101.8 470.8 96.5 470.9 91.6 470.9 91.6 470.9 62.6 470.9 56.9ZM456.6 101.7C454.4 103.8 450.8 104.9 445.6 104.9L426.2 104.9C421 104.9 417.4 103.9 415.2 101.7 413 99.5 412 96 412 91.1L412 88.7C412 83.7 413.1 80.2 415.3 78.1 417.5 76 421.1 74.9 426.3 74.9L459.9 74.9 459.9 91.1C459.9 96 458.8 99.5 456.6 101.7Z" fill="#FFFFFF"/><path d="M652.9 56.9C652.9 55.7 652.9 44.4 644.8 36.5 639.6 31.4 631.1 27.2 617 27.2L592.5 27.2 592.5 37.1 618.1 37.1C627.2 37.1 632.9 39.7 636.3 43.1 640.4 47.1 641.8 52.4 641.8 56.5L641.8 65 606.7 65C600 65 591 66.5 586.3 73.9 583.8 77.9 582.9 83.2 582.8 88.1L582.8 91.6C582.9 96.5 583.7 101.8 586.3 105.8 591 113.3 600 114.7 606.7 114.7L629 114.7C635.7 114.7 644.7 113.2 649.4 105.8 651.9 101.8 652.8 96.5 652.9 91.6 652.9 91.6 652.9 62.6 652.9 56.9ZM638.6 101.7C636.4 103.8 632.8 104.9 627.6 104.9L608.2 104.9C603 104.9 599.4 103.9 597.2 101.7 595 99.5 594 96 594 91.1L594 88.7C594 83.7 595.1 80.2 597.3 78.1 599.5 76 603.1 74.9 608.3 74.9L641.9 74.9 641.9 91.1C641.9 96 640.8 99.5 638.6 101.7Z" fill="#FFFFFF"/><path d="M317.8 27.2 306.3 27.2 278.4 99.8 250.5 27.2 239.1 27.2 272.7 114.7 262.6 141 274.1 141Z" fill="#FFFFFF"/><path d="M392.2 56.9C392.2 55.7 392.2 44.4 384.2 36.5 379.1 31.5 371 27.4 357.8 27.2L356.6 27.2C343.4 27.4 335.3 31.5 330.2 36.5 322.2 44.4 322.2 55.7 322.2 56.9 322.2 58.3 322.2 110.3 322.2 114.8L333.2 114.8 333.2 56.6C333.2 52.5 334.5 47.2 338.6 43.2 342 39.9 348.5 37.3 357.2 37.2 365.9 37.3 372.4 39.9 375.8 43.2 379.8 47.2 381.2 52.5 381.2 56.6L381.2 114.8 392.2 114.8C392.2 110.3 392.2 58.3 392.2 56.9Z" fill="#FFFFFF"/><path d="M791 36.5C785.9 31.5 777.8 27.4 764.6 27.2L763.4 27.2C750.2 27.4 742.1 31.5 737 36.5 729 44.4 729 55.7 729 56.9L729 85.1C729 86.3 729 97.6 737 105.5 742.1 110.5 750.2 114.6 763.4 114.8L789.4 114.8 789.4 104.8 764 104.8C755.3 104.7 748.8 102.1 745.4 98.8 741.4 94.8 740 89.5 740 85.4L740 75.1 799 75.1 799 56.9C799.1 55.7 799.1 44.4 791 36.5ZM740.1 65.2 740.1 56.6C740.1 52.5 741.4 47.2 745.5 43.2 748.9 39.9 755.4 37.3 764.1 37.2 772.8 37.3 779.3 39.9 782.7 43.2 786.7 47.2 788.1 52.5 788.1 56.6L788.1 65.2 740.1 65.2Z" fill="#FFFFFF"/></g><g><path d="M47.7 12.7C45.9 22.2 43.7 36.3 42.5 50.6 40.4 75.8 41.7 92.7 41.7 92.7L6.2 126.4C6.2 126.4 3.5 107.5 2.1 86.2 1.3 73 1 61.4 1 54.4 1 54 1.2 53.6 1.2 53.2 1.2 52.7 1.8 48 6.4 43.6 11.4 38.8 48.3 9.9 47.7 12.7Z" fill="#1496FF"/><path d="M47.7 12.7C45.9 22.2 43.7 36.3 42.5 50.6 42.5 50.6 3.2 45.9 1 55.4 1 54.9 1.7 49.1 6.3 44.7 11.3 39.9 48.3 9.9 47.7 12.7Z" fill="#1284EA"/><path d="M1 53.1C1 53.8 1 54.5 1 55.3 1.4 53.6 2.1 52.4 3.5 50.5 6.4 46.8 11.1 45.8 13 45.6 22.6 44.3 36.8 42.8 51.1 42.4 76.4 41.6 93.1 43.7 93.1 43.7L128.6 10C128.6 10 110 6.5 88.8 4 74.9 2.3 62.7 1.4 55.8 1 55.3 1 50.4 0.4 45.8 4.8 40.8 9.6 15.4 33.7 5.2 43.4 0.6 47.8 1 52.7 1 53.1Z" fill="#B4DC00"/><path d="M127.3 96.2C117.7 97.5 103.5 99.1 89.2 99.6 63.9 100.4 47.1 98.3 47.1 98.3L11.6 132.1C11.6 132.1 30.4 135.8 51.6 138.2 64.6 139.7 76.1 140.5 83.1 140.9 83.6 140.9 84.4 140.5 84.9 140.5 85.4 140.5 90.3 139.6 94.9 135.2 99.9 130.4 130.1 95.9 127.3 96.2Z" fill="#6F2DA8"/><path d="M127.3 96.2C117.7 97.5 103.5 99.1 89.2 99.6 89.2 99.6 91.9 139.1 82.4 140.8 82.9 140.8 89.4 140.5 94 136.1 99 131.3 130.1 95.9 127.3 96.2Z" fill="#591F91"/><path d="M84.5 141C83.8 141 83.1 140.9 82.3 140.9 84.1 140.6 85.3 140 87.2 138.6 91 135.9 92.2 131.2 92.6 129.3 94.3 119.8 96.6 105.7 97.7 91.4 99.7 66.2 98.5 49.4 98.5 49.4L134 15.6C134 15.6 136.6 34.4 138.1 55.7 139 69.6 139.3 81.9 139.4 88.7 139.4 89.2 139.8 94.1 135.2 98.5 130.2 103.3 104.8 127.5 94.7 137.2 89.9 141.6 85 141 84.5 141Z" fill="#73BE28"/></g></g></g></svg>